<svg width="24" height="24" viewBox="0 0 24 24" fill="#E4405F" xmlns="http://www.w3.org/2000/svg">
  <path d="M12 2.163c3.204 0 3.584.012 4.85.07 1.366.062 2.633.35 3.608 1.325.975.975 1.264 2.242 1.326 3.608.058 1.266.069 1.646.069 4.85s-.012 3.584-.07 4.85c-.062 1.366-.35 2.633-1.325 3.608-.975.975-2.242 1.264-3.608 1.326-1.266.058-1.646.069-4.85.069s-3.584-.012-4.85-.07c-1.366-.062-2.633-.35-3.608-1.325-.975-.975-1.264-2.242-1.326-3.608C2.175 15.584 2.163 15.204 2.163 12s.012-3.584.07-4.85C2.295 5.784 2.583 4.517 3.558 3.542c.975-.975 2.242-1.264 3.608-1.326 1.266-.058 1.646-.069 4.85-.069Zm0 1.837c-3.17 0-3.548.012-4.797.069-1.042.05-1.61.218-1.986.386-.5.194-.86.426-1.237.803-.377.377-.609.737-.803 1.237-.168.376-.336.944-.386 1.986-.057 1.249-.069 1.627-.069 4.797s.012 3.548.069 4.797c.05 1.042.218 1.61.386 1.986.194.5.426.86.803 1.237.377.377.737.609 1.237.803.376.168.944.336 1.986.386 1.249.057 1.627.069 4.797.069s3.548-.012 4.797-.069c1.042-.05 1.61-.218 1.986-.386.5-.194.86-.426 1.237-.803.377-.377.609-.737.803-1.237.168-.376.336-.944.386-1.986.057-1.249.069-1.627.069-4.797s-.012-3.548-.069-4.797c-.05-1.042-.218-1.61-.386-1.986-.194-.5-.426-.86-.803-1.237-.377-.377-.737-.609-1.237-.803-.376-.168-.944-.336-1.986-.386-1.249-.057-1.627-.069-4.797-.069Zm0 3.942a5.058 5.058 0 1 1 0 10.116 5.058 5.058 0 0 1 0-10.116Zm0 8.333a3.275 3.275 0 1 0 0-6.55 3.275 3.275 0 0 0 0 6.55Zm5.338-9.68a1.183 1.183 0 1 1 0-2.366 1.183 1.183 0 0 1 0 2.366Z"></path>
</svg>
